<svg xmlns="http://www.w3.org/2000/svg" width="1080" height="1920" viewBox="0 0 1080 1920" role="img" aria-label="Recepción para móvil">
  <defs>
    <linearGradient id="receptionSky" x1="0%" y1="0%" x2="0%" y2="100%">
      <stop offset="0%" stop-color="#f4d8a0"/>
      <stop offset="45%" stop-color="#c4843e"/>
      <stop offset="100%" stop-color="#28170d"/>
    </linearGradient>
    <linearGradient id="receptionFloor" x1="0%" y1="0%" x2="100%" y2="100%">
      <stop offset="0%" stop-color="#2a1a11"/>
      <stop offset="100%" stop-color="#090604"/>
    </linearGradient>
    <linearGradient id="receptionInterior" x1="0%" y1="0%" x2="100%" y2="100%">
      <stop offset="0%" stop-color="#6d4629"/>
      <stop offset="100%" stop-color="#24140c"/>
    </linearGradient>
  </defs>
  <rect width="1080" height="1920" fill="url(#receptionSky)"/>
  <rect y="1240" width="1080" height="680" fill="url(#receptionFloor)"/>
  <rect x="150" y="740" width="780" height="520" rx="24" fill="url(#receptionInterior)" opacity="0.96"/>
  <rect x="220" y="660" width="640" height="140" rx="16" fill="#845130" opacity="0.95"/>
  <rect x="270" y="560" width="540" height="140" rx="16" fill="#aa6c39" opacity="0.9"/>
  <rect x="330" y="470" width="420" height="140" rx="16" fill="#c0854d" opacity="0.88"/>
  <rect x="270" y="850" width="140" height="220" rx="10" fill="#1a1008" opacity="0.9"/>
  <rect x="430" y="850" width="140" height="220" rx="10" fill="#181008" opacity="0.9"/>
  <rect x="590" y="850" width="140" height="220" rx="10" fill="#20110a" opacity="0.9"/>
  <rect x="750" y="850" width="140" height="220" rx="10" fill="#171008" opacity="0.9"/>
  <path d="M0 1360 C240 1290 420 1245 540 1290 C660 1335 860 1390 1080 1330 L1080 1920 L0 1920 Z" fill="#2b160d" opacity="0.55"/>
  <ellipse cx="840" cy="560" rx="120" ry="70" fill="#ffe8b7" opacity="0.14"/>
</svg>
