<svg xmlns="http://www.w3.org/2000/svg" width="1080" height="1920" viewBox="0 0 1080 1920" role="img" aria-label="Sala de espera para móvil">
  <defs>
    <linearGradient id="waitSky" x1="0%" y1="0%" x2="0%" y2="100%">
      <stop offset="0%" stop-color="#f1d5a0"/>
      <stop offset="50%" stop-color="#ab6e34"/>
      <stop offset="100%" stop-color="#24150b"/>
    </linearGradient>
    <linearGradient id="waitRoom" x1="0%" y1="0%" x2="100%" y2="100%">
      <stop offset="0%" stop-color="#604124"/>
      <stop offset="100%" stop-color="#18110a"/>
    </linearGradient>
  </defs>
  <rect width="1080" height="1920" fill="url(#waitSky)"/>
  <rect y="1210" width="1080" height="710" fill="#16100a"/>
  <rect x="150" y="720" width="780" height="500" rx="24" fill="url(#waitRoom)" opacity="0.95"/>
  <rect x="210" y="650" width="660" height="140" rx="18" fill="#7d4d2b" opacity="0.9"/>
  <rect x="270" y="560" width="540" height="120" rx="16" fill="#a96b3d" opacity="0.9"/>
  <rect x="330" y="500" width="420" height="110" rx="14" fill="#c9874a" opacity="0.86"/>
  <rect x="230" y="838" width="140" height="220" rx="12" fill="#130b08" opacity="0.9"/>
  <rect x="390" y="838" width="140" height="220" rx="12" fill="#190d08" opacity="0.9"/>
  <rect x="550" y="838" width="140" height="220" rx="12" fill="#140b08" opacity="0.9"/>
  <rect x="710" y="838" width="140" height="220" rx="12" fill="#1c1008" opacity="0.9"/>
  <path d="M0 1360 C240 1290 420 1248 540 1295 C660 1342 840 1395 1080 1335 L1080 1920 L0 1920 Z" fill="#32180c" opacity="0.55"/>
</svg>