<svg xmlns="http://www.w3.org/2000/svg" width="1080" height="1920" viewBox="0 0 1080 1920" role="img" aria-label="Oficina de derechos de autor para móvil">
  <defs>
    <linearGradient id="copySky" x1="0%" y1="0%" x2="0%" y2="100%">
      <stop offset="0%" stop-color="#f2d8ae"/>
      <stop offset="55%" stop-color="#9e632f"/>
      <stop offset="100%" stop-color="#24150b"/>
    </linearGradient>
    <linearGradient id="copyRoom" x1="0%" y1="0%" x2="100%" y2="100%">
      <stop offset="0%" stop-color="#614326"/>
      <stop offset="100%" stop-color="#1a110a"/>
    </linearGradient>
  </defs>
  <rect width="1080" height="1920" fill="url(#copySky)"/>
  <rect y="1210" width="1080" height="710" fill="#16100a"/>
  <rect x="140" y="720" width="800" height="520" rx="24" fill="url(#copyRoom)" opacity="0.95"/>
  <rect x="200" y="640" width="680" height="140" rx="18" fill="#7b4a27" opacity="0.9"/>
  <rect x="260" y="560" width="560" height="120" rx="16" fill="#a66d3b" opacity="0.9"/>
  <rect x="310" y="500" width="460" height="110" rx="14" fill="#c88a4e" opacity="0.86"/>
  <rect x="220" y="840" width="150" height="220" rx="12" fill="#130c08" opacity="0.9"/>
  <rect x="390" y="840" width="150" height="220" rx="12" fill="#190e08" opacity="0.9"/>
  <rect x="560" y="840" width="150" height="220" rx="12" fill="#140b08" opacity="0.9"/>
  <rect x="730" y="840" width="150" height="220" rx="12" fill="#1c0f08" opacity="0.9"/>
  <path d="M0 1360 C250 1285 430 1248 540 1295 C650 1342 840 1395 1080 1335 L1080 1920 L0 1920 Z" fill="#32180c" opacity="0.53"/>
</svg>