<svg xmlns="http://www.w3.org/2000/svg" width="1080" height="1920" viewBox="0 0 1080 1920" role="img" aria-label="Vista exterior diurna para móvil">
  <defs>
    <linearGradient id="sky" x1="0%" y1="0%" x2="0%" y2="100%">
      <stop offset="0%" stop-color="#f6dca5"/>
      <stop offset="45%" stop-color="#d79e52"/>
      <stop offset="100%" stop-color="#3d2309"/>
    </linearGradient>
    <linearGradient id="ground" x1="0%" y1="0%" x2="100%" y2="100%">
      <stop offset="0%" stop-color="#2f2012"/>
      <stop offset="100%" stop-color="#0d0703"/>
    </linearGradient>
    <linearGradient id="building" x1="0%" y1="0%" x2="100%" y2="100%">
      <stop offset="0%" stop-color="#6a4a2a"/>
      <stop offset="100%" stop-color="#1e130a"/>
    </linearGradient>
  </defs>
  <rect width="1080" height="1920" fill="url(#sky)"/>
  <rect y="1180" width="1080" height="740" fill="url(#ground)"/>
  <ellipse cx="540" cy="1050" rx="360" ry="180" fill="#f8d9a5" opacity="0.26"/>
  <rect x="180" y="780" width="720" height="520" rx="18" fill="url(#building)"/>
  <rect x="260" y="720" width="560" height="120" rx="14" fill="#3b2414"/>
  <rect x="310" y="620" width="460" height="140" rx="14" fill="#52341b"/>
  <rect x="354" y="550" width="372" height="120" rx="12" fill="#7c5331"/>
  <rect x="410" y="450" width="260" height="140" rx="12" fill="#a66c36"/>
  <rect x="240" y="844" width="120" height="220" rx="10" fill="#28170c" opacity="0.9"/>
  <rect x="372" y="844" width="120" height="220" rx="10" fill="#1d1209" opacity="0.92"/>
  <rect x="504" y="844" width="120" height="220" rx="10" fill="#2c1a0f" opacity="0.95"/>
  <rect x="636" y="844" width="120" height="220" rx="10" fill="#1e130a" opacity="0.9"/>
  <rect x="768" y="844" width="120" height="220" rx="10" fill="#23140b" opacity="0.9"/>
  <rect x="0" y="1540" width="1080" height="380" fill="#0b0603" opacity="0.65"/>
  <ellipse cx="862" cy="626" rx="98" ry="56" fill="#fff3cc" opacity="0.24"/>
  <path d="M0 1320 C220 1270 340 1230 540 1280 C740 1330 860 1360 1080 1310 L1080 1920 L0 1920 Z" fill="#2d1a0d" opacity="0.55"/>
</svg>
